<svg width="24" height="24" viewBox="0 0 24 24" fill="none" xmlns="http://www.w3.org/2000/svg">
<mask id="mask0_44_186" style="mask-type:luminance" maskUnits="userSpaceOnUse" x="2" y="2" width="20" height="20">
<path d="M2 2H22V22H2V2Z" fill="white"/>
</mask>
<g mask="url(#mask0_44_186)">
<path d="M21.4141 12C21.4141 17.1993 17.1993 21.4141 12 21.4141C6.80074 21.4141 2.58594 17.1993 2.58594 12C2.58594 6.80074 6.80074 2.58594 12 2.58594C17.1993 2.58594 21.4141 6.80074 21.4141 12Z" stroke="black" stroke-width="1.2" stroke-miterlimit="10" stroke-linecap="round" stroke-linejoin="round"/>
<path d="M14.3438 12C14.3438 13.2944 13.2944 14.3438 12 14.3438C10.7056 14.3438 9.65625 13.2944 9.65625 12C9.65625 10.7056 10.7056 9.65625 12 9.65625C13.2944 9.65625 14.3438 10.7056 14.3438 12Z" stroke="black" stroke-width="1.2" stroke-miterlimit="10" stroke-linecap="round" stroke-linejoin="round"/>
<path d="M13.2754 10.0354C14.251 8.80864 14.1729 7.01907 13.0381 5.88431C11.8178 4.66392 9.83908 4.66392 8.61873 5.88431C8.11107 6.39196 8.31518 7.25626 8.99619 7.48325C10.0876 7.84708 10.9509 8.68013 11.3669 9.74556" stroke="black" stroke-width="1.2" stroke-miterlimit="10" stroke-linecap="round" stroke-linejoin="round"/>
<path d="M13.9646 13.275C15.1914 14.2506 16.9809 14.1725 18.1157 13.0377C19.336 11.8173 19.336 9.83867 18.1157 8.61828C17.608 8.11066 16.7437 8.31473 16.5167 8.99574C16.1529 10.0872 15.3198 10.9505 14.2544 11.3665" stroke="black" stroke-width="1.2" stroke-miterlimit="10" stroke-linecap="round" stroke-linejoin="round"/>
<path d="M12.5859 12C12.5859 12.3236 12.3236 12.5859 12 12.5859C11.6764 12.5859 11.4141 12.3236 11.4141 12C11.4141 11.6764 11.6764 11.4141 12 11.4141C12.3236 11.4141 12.5859 11.6764 12.5859 12Z" fill="black"/>
<path d="M10.724 13.9649C9.74846 15.1917 9.82654 16.9812 10.9613 18.116C12.1817 19.3363 14.1604 19.3363 15.3807 18.116C15.8884 17.6083 15.6843 16.744 15.0033 16.517C13.9119 16.1532 13.0485 15.3202 12.6325 14.2547" stroke="black" stroke-width="1.2" stroke-miterlimit="10" stroke-linecap="round" stroke-linejoin="round"/>
<path d="M10.0351 10.7248C8.80838 9.74924 7.01885 9.82733 5.88404 10.9621C4.66365 12.1825 4.66365 14.1612 5.88404 15.3815C6.39166 15.8891 7.256 15.6851 7.48303 15.0041C7.84682 13.9126 8.67986 13.0494 9.74529 12.6333" stroke="black" stroke-width="1.2" stroke-miterlimit="10" stroke-linecap="round" stroke-linejoin="round"/>
</g>
</svg>
