<svg width="16" height="17" viewBox="0 0 16 17" fill="none" xmlns="http://www.w3.org/2000/svg">
<path d="M14.0542 12.2975C14.0542 12.539 14.003 12.7872 13.8943 13.0287C13.7855 13.2702 13.6448 13.4983 13.4593 13.7129C13.1459 14.0752 12.8004 14.3368 12.4102 14.5045C12.0264 14.6722 11.6106 14.7594 11.1628 14.7594C10.5104 14.7594 9.8131 14.5984 9.07747 14.2697C8.34183 13.941 7.60619 13.4983 6.87695 12.9415C6.14132 12.378 5.44406 11.7541 4.77879 11.0631C4.11992 10.3655 3.52501 9.63427 2.99408 8.86952C2.46954 8.10477 2.04734 7.34002 1.7403 6.58198C1.43325 5.81723 1.27972 5.08602 1.27972 4.38836C1.27972 3.93219 1.35649 3.49615 1.51001 3.09365C1.66353 2.68444 1.90661 2.30877 2.24565 1.97336C2.65504 1.55073 3.10282 1.34277 3.57619 1.34277C3.7553 1.34277 3.93441 1.38302 4.09433 1.46352C4.26065 1.54402 4.40778 1.66477 4.52292 1.83919L6.00699 4.03282C6.12213 4.20052 6.20529 4.35482 6.26286 4.5024C6.32043 4.64327 6.35241 4.78415 6.35241 4.91161C6.35241 5.07261 6.30764 5.23361 6.21808 5.3879C6.13492 5.54219 6.01338 5.70319 5.85986 5.86419L5.3737 6.39415C5.30333 6.46794 5.27135 6.55515 5.27135 6.66248C5.27135 6.71615 5.27775 6.76311 5.29054 6.81677C5.30973 6.87044 5.32892 6.91069 5.34171 6.95094C5.45686 7.17232 5.65516 7.46077 5.93662 7.80961C6.22448 8.15844 6.53153 8.51398 6.86416 8.86952C7.20959 9.22507 7.54223 9.55377 7.88126 9.85565C8.21389 10.1508 8.48896 10.3521 8.70645 10.4728C8.73843 10.4862 8.77681 10.5064 8.82159 10.5265C8.87277 10.5466 8.92394 10.5533 8.98151 10.5533C9.09026 10.5533 9.17342 10.5131 9.24378 10.4393L9.72994 9.93615C9.88986 9.76844 10.0434 9.64098 10.1905 9.56048C10.3376 9.46657 10.4848 9.41961 10.6447 9.41961C10.7662 9.41961 10.8942 9.44644 11.0349 9.50682C11.1756 9.56719 11.3228 9.6544 11.4827 9.76844L13.6 11.3449C13.7663 11.4656 13.8815 11.6065 13.9519 11.7742C14.0158 11.9419 14.0542 12.1096 14.0542 12.2975Z" stroke="black" stroke-width="1.2" stroke-miterlimit="10"/>
</svg>
