<svg width="26" height="26" viewBox="0 0 26 26" fill="none" xmlns="http://www.w3.org/2000/svg">
<path d="M17.6048 24.375C18.6519 24.375 19.5007 23.5262 19.5007 22.4791C19.5007 21.4321 18.6519 20.5833 17.6048 20.5833C16.5578 20.5833 15.709 21.4321 15.709 22.4791C15.709 23.5262 16.5578 24.375 17.6048 24.375Z" fill="#2362A8"/>
<path d="M8.93685 24.375C9.98389 24.375 10.8327 23.5262 10.8327 22.4791C10.8327 21.4321 9.98389 20.5833 8.93685 20.5833C7.88981 20.5833 7.04102 21.4321 7.04102 22.4791C7.04102 23.5262 7.88981 24.375 8.93685 24.375Z" fill="#2362A8"/>
<path d="M5.24268 4.26841L5.02602 6.92258C4.98268 7.43175 5.38352 7.85425 5.89268 7.85425H22.4785C22.9335 7.85425 23.3127 7.50758 23.3452 7.05258C23.486 5.13508 22.0235 3.57508 20.106 3.57508H6.79185C6.68352 3.09841 6.46685 2.64341 6.13102 2.26425C5.58935 1.69008 4.83102 1.35425 4.05102 1.35425H2.16602C1.72185 1.35425 1.35352 1.72258 1.35352 2.16675C1.35352 2.61091 1.72185 2.97925 2.16602 2.97925H4.05102C4.38685 2.97925 4.70102 3.12008 4.92852 3.35841C5.15602 3.60758 5.26435 3.93258 5.24268 4.26841Z" fill="#2362A8"/>
<path d="M22.2199 9.47925H5.60154C5.14654 9.47925 4.77821 9.82591 4.73487 10.2701L4.34488 14.9826C4.19321 16.8351 5.64488 18.4168 7.49738 18.4168H19.544C21.169 18.4168 22.599 17.0843 22.7182 15.4593L23.0757 10.4001C23.119 9.90175 22.729 9.47925 22.2199 9.47925Z" fill="#2362A8"/>
</svg>
