<svg width="20" height="19" viewBox="0 0 20 19" fill="none" xmlns="http://www.w3.org/2000/svg">
<path d="M15 14.4497H14.3667C13.7 14.4497 13.0667 14.6867 12.6 15.1149L11.175 16.407C10.525 16.9957 9.46668 16.9957 8.81668 16.407L7.39166 15.1149C6.925 14.6867 6.28333 14.4497 5.625 14.4497H5C3.61667 14.4497 2.5 13.4329 2.5 12.1791V3.83026C2.5 2.57641 3.61667 1.55957 5 1.55957H15C16.3833 1.55957 17.5 2.57641 17.5 3.83026V12.1714C17.5 13.4253 16.3833 14.4497 15 14.4497Z" stroke="#00162E" stroke-width="1.2" stroke-miterlimit="10" stroke-linecap="round" stroke-linejoin="round"/>
<path d="M10.0579 6.87332C10.0246 6.87332 9.97455 6.87332 9.93288 6.87332C9.05788 6.84273 8.36621 6.19287 8.36621 5.38246C8.36621 4.55675 9.09122 3.8916 9.99122 3.8916C10.8912 3.8916 11.6162 4.5644 11.6162 5.38246C11.6246 6.19287 10.9329 6.85038 10.0579 6.87332Z" stroke="#00162E" stroke-width="1.2" stroke-linecap="round" stroke-linejoin="round"/>
<path d="M7.7082 9.17399C6.59987 9.85443 6.59987 10.963 7.7082 11.6435C8.96654 12.4157 11.0332 12.4157 12.2915 11.6435C13.3999 10.963 13.3999 9.85443 12.2915 9.17399C11.0332 8.40945 8.97487 8.40945 7.7082 9.17399Z" stroke="#00162E" stroke-width="1.2" stroke-linecap="round" stroke-linejoin="round"/>
</svg>
