<svg width="18" height="18" viewBox="0 0 18 18" fill="none" xmlns="http://www.w3.org/2000/svg">
<path d="M12.5249 14.2355H5.47491C5.15991 14.2355 4.8074 13.988 4.7024 13.688L1.59741 5.00301C1.15491 3.75801 1.67241 3.37551 2.73741 4.14051L5.66241 6.23301C6.14991 6.57051 6.70491 6.39801 6.91491 5.85051L8.23491 2.33301C8.65491 1.20801 9.35241 1.20801 9.77241 2.33301L11.0924 5.85051C11.3024 6.39801 11.8574 6.57051 12.3374 6.23301L15.0824 4.27551C16.2524 3.43551 16.8149 3.86301 16.3349 5.22051L13.3049 13.703C13.1924 13.988 12.8399 14.2355 12.5249 14.2355Z" stroke="#00162E" stroke-width="1.2" stroke-linecap="round" stroke-linejoin="round"/>
<path d="M4.875 16.5H13.125" stroke="#00162E" stroke-width="1.2" stroke-linecap="round" stroke-linejoin="round"/>
<path d="M7.125 10.5H10.875" stroke="#00162E" stroke-width="1.2" stroke-linecap="round" stroke-linejoin="round"/>
</svg>
