<svg width="22" height="22" viewBox="0 0 22 22" fill="none" xmlns="http://www.w3.org/2000/svg">
<path d="M1.72827 9.17631C2.3263 8.19528 2.86775 7.19443 3.73093 6.42715C4.04259 6.15012 4.4459 5.92652 4.79223 5.69264C5.22641 5.39943 5.62639 5.11199 6.08736 4.8592C6.44423 4.6635 6.82133 4.48737 7.14865 4.23861C7.45826 4.00331 7.752 3.73381 8.07204 3.5131C8.29128 3.36189 8.52423 3.23098 8.74359 3.07839C8.96019 2.92771 9.11819 2.70256 9.33719 2.56873C9.54277 2.4431 9.68404 2.21602 9.88882 2.07706C10.0427 1.97263 10.1901 1.87235 10.3355 1.75927C10.5455 1.59598 10.8826 1.99816 11.0131 2.11003C11.6026 2.61535 12.1975 3.12309 12.8628 3.52809C13.516 3.92564 14.254 4.18669 14.9135 4.58638C15.3119 4.82785 15.736 5.05722 16.1037 5.34188C16.6805 5.78846 17.3667 6.21384 17.8725 6.73594C18.498 7.38159 18.9961 8.13304 19.6203 8.77458C19.928 9.09084 20.2919 9.41911 20.4478 9.84787C20.491 9.96664 20.333 9.90541 20.2919 9.86885C20.1401 9.73398 19.9773 9.49281 19.8841 9.31422C19.7588 9.07391 19.6848 8.79769 19.5364 8.57072C19.4308 8.40926 19.3136 8.23413 19.2666 8.04607C19.2506 7.98232 19.1705 7.8855 19.2786 7.88118C19.3381 7.8788 19.5077 7.9166 19.4344 7.80923C19.2314 7.5114 18.8988 7.27534 18.634 7.03574C18.238 6.67746 17.8162 6.35104 17.3778 6.0464C17.0094 5.79041 16.6977 5.47836 16.3105 5.24894C15.5164 4.77835 14.8441 4.10009 14.0351 3.64501C13.4671 3.32555 12.9413 3.07769 12.4671 2.6167C12.2022 2.35911 11.89 2.15352 11.6277 1.89118C11.5761 1.83966 11.3878 1.64361 11.3878 1.67532" stroke="#2362A8" stroke-linecap="round"/>
<path d="M9.07319 1.63626L2.14319 7.18626C1.36319 7.80626 0.863195 9.11626 1.03319 10.0963L2.36319 18.0563C2.60319 19.4763 3.96319 20.6263 5.40319 20.6263H16.6032C18.0332 20.6263 19.4032 19.4663 19.6432 18.0563L20.9732 10.0963C21.1332 9.11626 20.6332 7.80626 19.8632 7.18626L12.9332 1.64626C11.8632 0.786255 10.1332 0.786255 9.07319 1.63626Z" stroke="#2362A8" stroke-width="1.5" stroke-linecap="round" stroke-linejoin="round"/>
<path d="M11.3877 11.1189C11.6538 10.314 11.7979 9.63544 11.2918 8.88837C11.0826 8.57955 10.9072 8.75917 10.6292 8.90636C10.4191 9.0176 10.1192 9.37391 10.0956 8.94833C10.065 8.39837 9.96373 7.93836 10.0686 7.38937C10.1513 6.95651 10.194 6.51532 10.3054 6.08824C10.4115 5.68153 10.4571 5.14938 10.6442 4.77512C10.7009 4.66166 10.7401 4.65609 10.7401 4.50829C10.7401 4.35665 10.5628 4.48775 10.5123 4.36139C10.4615 4.23446 10.4561 4.09753 10.4104 3.97165C10.3522 3.81169 10.1374 4.18874 10.0656 4.23847C9.78006 4.43615 9.41581 4.51302 9.14821 4.72115C8.84508 4.95692 8.52828 5.25352 8.31177 5.57258C8.08454 5.90745 7.79527 6.209 7.5143 6.48997C7.31026 6.69402 6.95493 7.05753 6.66587 7.12555C5.89679 7.30651 5.11272 7.68578 4.8161 8.48664C4.71905 8.74868 4.48033 8.97834 4.48033 9.27211C4.48033 9.58291 4.48033 9.8937 4.48033 10.2045C4.48033 10.6419 4.63051 11.0209 4.64222 11.4427C4.64797 11.6496 4.8031 12.788 4.42936 12.0872C4.19627 11.6502 4.09144 11.0979 3.91071 10.6332C3.82448 10.4115 3.72136 10.1486 3.60491 9.94366C3.57924 9.89849 3.50898 9.76772 3.50898 9.77578C3.50898 10.1095 3.51859 10.4398 3.56294 10.7711C3.62597 11.242 3.70943 11.7309 3.88672 12.1742C3.94719 12.3253 4.04386 12.5712 4.04862 12.7378C4.0623 13.2168 4.10258 13.6903 4.10258 14.1738C4.10258 14.3777 4.05674 14.5732 4.04862 14.7764C4.04542 14.8563 3.9927 14.8397 3.97067 14.7704C3.87214 14.4608 3.86197 14.1059 3.7788 13.7871C3.54754 12.9006 3.33968 11.9939 3.1732 11.0949C3.12988 10.861 2.996 10.6151 2.97233 10.3904C2.95225 10.1995 2.90606 9.94303 2.81944 9.76978C2.58779 9.30648 3.33622 10.6721 3.52397 11.1549C3.82681 11.9336 4.13513 12.7325 4.34542 13.5413C4.58736 14.4718 4.58826 15.3558 4.58826 16.3114C4.58826 16.4193 4.6818 16.6835 4.58526 16.6352C4.53862 16.6119 4.47871 16.3397 4.46834 16.2994C4.35677 15.866 4.31665 15.4118 4.26447 14.9683C4.13928 13.9042 4.04135 12.8497 3.85974 11.7964C3.75864 11.21 3.82043 10.5536 3.64389 9.98863C3.54154 9.66114 3.71916 10.22 3.73682 10.2854C3.85106 10.7085 3.93047 11.1402 4.04862 11.5626C4.2213 12.1799 4.48917 12.7649 4.6722 13.3794C4.88926 14.1081 5.07393 14.9178 5.07393 15.6848C5.07393 15.8984 4.97792 16.5048 5.23582 16.5692" stroke="#2362A8" stroke-width="4" stroke-linecap="round"/>
<path d="M7.71815 10.3633C7.6742 11.3193 7.60411 12.274 7.55026 13.2294C7.5295 13.5978 7.48051 13.9781 7.54427 14.3447C7.58734 14.5923 7.55626 14.8621 7.55626 15.1122C7.55626 15.4219 7.58221 15.7728 7.4903 16.0715C7.40505 16.3486 7.25545 16.5999 7.07058 16.827C6.92203 17.0095 6.70274 17.1154 6.56092 17.2977C6.4801 17.4016 6.26128 17.4695 6.12621 17.5405C5.95291 17.6318 5.7753 17.6425 5.61355 17.7144C5.49485 17.7672 5.30103 17.9117 5.18184 17.9183C4.92301 17.9327 4.90449 17.6824 5.18184 17.8673C5.59547 18.1431 5.96227 18.35 6.46499 18.35C6.87471 18.35 7.28444 18.35 7.69416 18.35C8.18476 18.35 8.64391 18.3267 9.10922 18.4699C9.62033 18.6272 10.1505 18.6198 10.6862 18.6198C11.7219 18.6198 12.7437 18.6738 13.7741 18.6738C14.4616 18.6738 15.1492 18.6738 15.8367 18.6738C16.2614 18.6738 16.5565 18.4351 16.892 18.2301C17.0242 18.1493 17.1065 17.9451 17.1738 17.8104C17.2684 17.6212 17.3959 17.349 17.4287 17.1358C17.4614 16.923 17.5385 16.6644 17.6175 16.4613C17.6901 16.2746 17.6714 15.9689 17.8094 15.8137C17.9554 15.6494 18.0151 15.3205 18.0672 15.1122C18.1387 14.8262 18.2951 14.5237 18.2951 14.2218C18.2951 13.7709 18.4973 13.2943 18.5109 12.8457C18.5237 12.4243 18.6189 12.0391 18.6189 11.6045C18.6189 11.4211 18.6413 11.2843 18.7148 11.1188C18.8023 10.922 18.4713 10.6835 18.406 10.5312C18.3258 10.344 17.8857 10.0886 17.7285 9.95561C17.4813 9.74644 17.1928 9.39423 16.904 9.27206C16.4668 9.08707 16.2042 8.48155 15.8667 8.17779C15.463 7.81447 15.0623 7.4074 14.5716 7.13749C14.403 7.04479 14.1872 6.84371 14.0439 6.70578C13.8744 6.54252 13.6571 6.42691 13.4923 6.26207C13.2682 6.03795 13.0531 5.82369 12.8177 5.6145C12.7374 5.54311 12.6933 5.45661 12.6019 5.39565C12.3763 5.24528 12.518 5.55132 12.5869 5.71044C12.8392 6.29344 13.2815 6.87813 13.6902 7.35934C14.162 7.91483 14.4231 8.57744 14.8354 9.17013C15.3838 9.9584 15.8775 10.7414 16.0316 11.6914C16.2143 12.8181 16.1097 13.9441 15.6808 15.0162C15.4094 15.6949 14.7434 15.6518 14.1159 15.6518C13.3737 15.6518 12.6529 15.5693 11.9153 15.5439C11.5264 15.5305 11.0028 15.4473 10.6562 15.2741C10.2341 15.063 9.71823 14.3874 9.66685 13.925C9.50461 12.4648 10.4546 11.3519 11.8914 11.1308C12.9312 10.9708 13.8048 12.0144 13.7052 13.0106C13.6549 13.513 13.2415 13.1359 12.9257 13.0615C12.7786 13.0269 12.1467 12.6298 12.467 12.6298" stroke="#2362A8" stroke-width="4" stroke-linecap="round"/>
<path d="M11 18V13" stroke="white" stroke-width="1.5" stroke-linecap="round" stroke-linejoin="round"/>
<path d="M14 18V13" stroke="white" stroke-width="1.5" stroke-linecap="round" stroke-linejoin="round"/>
<path d="M8 18V13" stroke="white" stroke-width="1.5" stroke-linecap="round" stroke-linejoin="round"/>
</svg>
