<svg width="24" height="24" viewBox="0 0 24 24" fill="none" xmlns="http://www.w3.org/2000/svg">
<path d="M5.625 10H7.375C9.125 10 10 9.125 10 7.375V5.625C10 3.875 9.125 3 7.375 3H5.625C3.875 3 3 3.875 3 5.625V7.375C3 9.125 3.875 10 5.625 10Z" stroke="#2362A8" stroke-width="1.5" stroke-miterlimit="10" stroke-linecap="round" stroke-linejoin="round"/>
<path d="M16.625 10H18.375C20.125 10 21 9.125 21 7.375V5.625C21 3.875 20.125 3 18.375 3H16.625C14.875 3 14 3.875 14 5.625V7.375C14 9.125 14.875 10 16.625 10Z" stroke="#2362A8" stroke-width="1.5" stroke-miterlimit="10" stroke-linecap="round" stroke-linejoin="round"/>
<path d="M16.625 20.9998H18.375C20.125 20.9998 21 20.1248 21 18.3748V16.6248C21 14.8748 20.125 13.9998 18.375 13.9998H16.625C14.875 13.9998 14 14.8748 14 16.6248V18.3748C14 20.1248 14.875 20.9998 16.625 20.9998Z" stroke="#2362A8" stroke-width="1.5" stroke-miterlimit="10" stroke-linecap="round" stroke-linejoin="round"/>
<path d="M5.625 21H7.375C9.125 21 10 20.125 10 18.375V16.625C10 14.875 9.125 14 7.375 14H5.625C3.875 14 3 14.875 3 16.625V18.375C3 20.125 3.875 21 5.625 21Z" stroke="#2362A8" stroke-width="1.5" stroke-miterlimit="10" stroke-linecap="round" stroke-linejoin="round"/>
<path d="M4.82488 4.57425C5.35975 4.94455 6.16366 5.48394 6.81118 5.11393C7.16356 4.91257 7.4445 4.51549 7.79309 4.31941C7.86307 4.28004 7.6762 4.28497 7.61695 4.26694C7.36439 4.19007 7.10478 4.13609 6.84866 4.07206C6.51539 3.98874 6.29914 3.92294 5.97543 4.06456C5.78373 4.14843 4.62988 4.105 4.6225 4.28943C4.60825 4.64554 4.54716 5.00548 4.48383 5.35378C4.46586 5.45263 4.33375 5.96443 4.30019 5.826C4.23342 5.55054 4.2852 5.21184 4.2852 4.92654C4.2852 4.34861 4.31224 6.22973 4.01536 5.7473C3.84183 5.4653 3.53999 5.01224 3.47944 4.67919C3.43894 4.45644 4.05876 4.50679 4.18027 4.50679C4.7013 4.50679 5.32186 4.60171 5.79929 4.38687C6.24485 4.18637 6.93749 4.30442 7.41832 4.30442C7.97163 4.30442 8.49755 4.17682 8.84246 4.69418C9.10741 5.09161 9.32707 5.92118 9.12729 6.39566C8.93424 6.85415 9.31425 8.5949 8.58761 8.62182C7.39486 8.66599 6.17599 9.10358 4.98978 8.88791C3.60645 8.63639 3.26876 6.67005 4.18027 5.75854C4.72054 5.21827 5.33735 5.07718 6.00916 4.77663C6.26678 4.66138 6.50069 4.67762 6.74747 4.54052C6.97129 4.41618 7.15606 4.28751 7.38459 4.17325C7.70924 4.01092 7.82796 3.98873 8.06293 4.38687C8.25926 4.71955 8.42092 5.07634 8.52015 5.45123C8.65983 5.97891 8.68357 6.70253 8.5314 7.23515C8.38004 7.7649 7.38856 7.87976 6.98358 7.87976C6.62475 7.87976 6.24488 7.913 5.88924 7.86477C5.6735 7.83552 5.51278 7.75928 5.31208 7.69238C5.20906 7.65804 5.08877 7.70639 4.98978 7.6624C4.79532 7.57597 4.55207 7.53654 4.45385 7.34009C4.31835 7.0691 4.27917 6.15271 4.39389 6.43314C4.5965 6.92842 4.46823 7.67955 4.80989 8.09713C4.88547 8.18952 4.76631 8.2899 4.9598 8.28452C5.25077 8.27644 5.49465 8.04797 5.7843 7.99969C6.09304 7.94824 6.28374 7.94353 6.54884 7.77483C6.96073 7.51271 7.33475 7.20658 7.71813 6.90535C7.97047 6.70709 8.19785 6.27431 8.19785 5.95717C8.19785 5.68556 8.22118 5.3074 7.83057 5.48496C7.21653 5.76407 6.76589 5.92344 6.10661 5.92344C5.89384 5.92344 5.81819 6.15452 5.66062 6.18953C5.44231 6.23805 5.26152 5.92892 5.13969 5.79602C5.0946 5.74683 4.8691 5.41117 5.00477 5.69483C5.14981 5.9981 5.45859 6.31803 5.49947 6.6655C5.51602 6.80614 5.84298 6.94211 5.97169 6.93533C6.48218 6.90846 6.89309 6.68852 7.25341 6.3282" stroke="#2362A8" stroke-linecap="round"/>
<path d="M8.60261 7.94722C8.34321 8.18231 8.09372 8.39603 7.99923 8.72675C7.96435 8.84883 7.99683 8.93615 7.92802 9.05656C7.73677 9.39125 6.95257 8.94021 6.74373 8.8242C6.22857 8.538 5.96719 7.84163 5.67188 7.37757C5.52434 7.14572 5.35649 7.07025 5.09473 7.07025" stroke="#2362A8" stroke-linecap="round"/>
<path d="M15.3486 4.03462C15.2061 4.59582 14.9438 5.21187 14.9438 5.80355C14.9438 6.11894 14.7415 6.31754 14.7415 6.6318C14.7415 6.95599 14.8 7.18863 14.9288 7.47505C14.9997 7.63254 15.0335 8.06808 15.1762 8.14964C15.4321 8.29587 15.6116 8.74035 15.8358 8.94416C16.2605 9.33029 16.9658 9.47822 17.5223 9.49883C17.9668 9.51529 18.7751 9.59686 19.1226 9.19151C19.4738 8.78174 19.7216 8.62303 19.7972 8.01847C19.8617 7.50224 19.8232 7.07843 19.9508 6.56809C20.0695 6.09317 20.0707 5.6714 20.0707 5.18143C20.0707 4.56753 19.2242 4.03462 18.6504 4.03462C18.3303 4.03462 18.0822 3.8997 17.7771 3.8997C17.4973 3.8997 17.2175 3.8997 16.9376 3.8997C16.5235 3.8997 16.0785 3.68272 15.8208 4.16954C15.6494 4.49323 15.4825 4.91632 15.7683 5.23389C15.8891 5.36802 15.9339 5.60467 16.0906 5.70611C16.2718 5.82334 15.5893 6.07647 15.4535 6.12586C14.918 6.32059 15.3049 7.24189 15.551 7.51252C15.6273 7.59654 15.5872 7.73931 15.6859 7.79735C15.7919 7.85972 15.8462 7.90997 15.922 8.01097C16.0096 8.12782 16.5558 8.34621 16.7128 8.35202C16.99 8.36229 17.2363 8.48694 17.5073 8.48694C17.7714 8.48694 18.0379 8.49671 18.3018 8.48694C18.8643 8.4661 19.1263 7.45409 19.1263 8.58438C19.1263 9.34222 18.187 9.31812 17.7134 8.9629C17.1906 8.57078 16.7278 8.34572 16.4579 7.69241C16.2824 7.26756 16.0232 6.79928 16.0232 6.33198C16.0232 5.99344 16.0232 5.65489 16.0232 5.31635C16.0232 5.01997 16.1874 4.57429 16.5329 4.57429C16.9907 4.57429 17.4355 4.56404 17.8971 4.57429C18.1635 4.58021 18.5673 4.57359 18.819 4.6455C18.9796 4.69137 19.1403 4.95288 19.2238 5.08399C19.4119 5.37964 19.666 5.98466 19.666 6.34323C19.666 6.61781 19.7166 6.80645 19.4636 6.9691C19.3429 7.0467 19.2595 7.16387 19.1413 7.24269C18.9907 7.34309 18.7976 7.35222 18.6466 7.46005C18.4669 7.58844 18.2644 7.72766 18.032 7.74488C17.6591 7.7725 17.6215 7.75359 17.2787 7.51627C16.7257 7.13342 16.6303 6.58541 16.6303 5.95346C16.6303 4.7963 18.3442 5.63608 18.6541 6.17833C18.7408 6.33001 18.8181 6.89796 18.7066 7.07029C18.5777 7.26949 18.0334 7.12415 17.9083 6.99908C17.3743 6.46512 17.4342 5.89501 18.0844 5.48125C18.6539 5.11888 18.9045 5.93902 18.8565 6.3957C18.8088 6.84823 17.6478 6.49272 18.047 6.19332" stroke="#2362A8" stroke-linecap="round"/>
<path d="M16.7653 14.963C16.3492 15.0046 15.9959 14.963 15.5848 14.963C15.4664 14.963 15.1593 14.9069 15.0939 15.0305C14.9905 15.2256 15.0789 15.6772 15.0789 15.8925C15.0789 16.6957 15.1045 17.4744 15.1463 18.2685C15.1567 18.4649 15.1954 18.828 15.3112 18.9769C15.4228 19.1203 15.2476 19.4424 15.3824 19.5503C15.5376 19.6744 15.4641 19.9132 15.6185 20.06C15.9416 20.3669 16.5496 20.4272 16.9677 20.4272C17.2781 20.4272 17.6386 20.3254 17.9459 20.2586C18.2312 20.1966 18.5354 20.2249 18.8266 20.2249C19.5662 20.2249 19.801 19.8405 19.801 19.1455C19.801 18.0172 20.0709 16.9257 20.0709 15.7875C20.0709 15.1557 19.3986 15.0602 18.8828 14.8618C18.3114 14.6421 17.286 14.3467 16.6979 14.6407C16.2951 14.8421 15.7535 15.3129 15.7535 15.8063C15.7535 16.2447 15.8257 16.0304 16.0908 15.7725C16.4676 15.4059 16.8343 15.1069 17.3875 15.098C18.0037 15.088 18.3736 15.3642 18.9278 15.5027C19.5622 15.6613 19.6661 16.9353 19.6661 17.459C19.6661 18.0069 19.6645 18.3523 19.4113 18.8082C19.1775 19.229 18.7559 19.4154 18.2869 19.4154C18.0504 19.4154 17.811 19.4272 17.5749 19.4154C17.404 19.4068 17.2728 19.2854 17.1026 19.2804C16.9346 19.2755 16.902 19.1683 16.7653 19.1455C16.6237 19.1219 16.4676 18.8803 16.4206 18.7745C16.2806 18.4596 16.0468 18.2314 15.9558 17.8675C15.8126 17.2946 15.8629 16.7869 16.1432 16.2822C16.3601 15.892 17.8285 15.4744 18.0546 15.87C18.1096 15.9663 18.3175 16.0307 18.3994 16.1398C18.5368 16.3231 18.6222 16.5351 18.7367 16.732C18.9299 17.0644 18.9241 17.5354 18.9241 17.9163C18.9241 18.5425 18.409 19.2804 17.706 19.2804C17.425 19.2804 17.1439 19.2804 16.8628 19.2804C16.6792 19.2804 16.5035 19.2952 16.3456 19.183C16.3128 19.1597 15.9328 18.8649 15.9034 18.8907C15.86 18.9286 16.6283 19.6297 16.7016 19.7152C16.8698 19.9114 17.4156 19.8297 17.6273 19.8201C18.0087 19.8028 18.2312 19.3289 18.3019 19.0106C18.5039 18.1018 18.0973 16.8931 17.6123 16.1436C17.4022 15.8188 17.14 15.7507 16.7354 15.7725C16.1388 15.8048 16.3614 17.067 16.443 17.4141C16.4979 17.6471 16.6539 17.897 16.7354 18.1299C16.7827 18.2651 16.9349 18.3738 16.964 18.5047C16.9994 18.664 17.1649 18.5651 17.2675 18.6771C17.5099 18.9414 17.4118 18.7337 17.3088 18.5084C17.0106 17.856 16.7974 17.1448 16.578 16.4621C16.487 16.1791 16.7213 16.499 16.7653 16.5821C16.9312 16.8949 17.1504 17.1749 17.3275 17.4815C17.4414 17.6786 17.3725 17.5571 17.3725 17.3616C17.3725 17.2067 17.347 16.7441 17.3725 16.8969C17.4431 17.3205 17.6443 17.7236 17.7473 18.1411C17.7828 18.2851 17.7809 18.4108 17.8447 18.5384" stroke="#2362A8" stroke-linecap="round"/>
<path d="M5.43218 14.8281C4.87354 14.8281 4.2359 15.0033 4.06801 15.6376C3.97085 16.0047 4.01554 16.4061 4.01554 16.7844C4.01554 17.1377 3.94808 17.4753 3.94808 17.8338C3.94808 18.3856 3.82753 19.1206 4.18793 19.584C4.50654 19.9936 4.6573 20.3573 5.2448 20.4797C5.78212 20.5916 6.50143 20.6272 7.03622 20.4797C7.47851 20.3577 9.09255 20.4694 9.26238 19.7901C9.51285 18.7882 9.52382 17.5232 9.24364 16.5146C9.10618 16.0198 8.97656 15.515 8.85762 15.0155C8.71999 14.4375 8.01362 14.5959 7.55341 14.4234C6.64155 14.0814 6.03581 14.2771 5.52963 15.1054C5.28773 15.5013 4.69013 15.9857 4.69013 16.4771C4.69013 16.625 4.66424 16.7453 4.59269 16.8781C4.51816 17.0165 4.39192 17.0725 4.43528 16.8219C4.50448 16.4221 4.9403 16.0743 5.18858 15.78C5.52683 15.3791 5.93566 15.1738 6.44407 15.0455C7.25611 14.8405 7.96185 15.0851 8.45287 15.7725C8.97864 16.5086 8.94007 17.4381 8.94007 18.3135C8.94007 18.716 8.86951 18.9416 8.67023 19.2654C8.55217 19.4573 8.18803 19.6986 7.96191 19.7489C7.65687 19.8167 7.1506 19.8047 6.84883 19.7377C6.42191 19.6428 6.00729 19.6912 5.58209 19.5653C5.44566 19.5248 5.34071 19.5651 5.21482 19.4828C5.00344 19.3446 4.90127 19.1251 4.72761 18.9431C4.36183 18.5599 4.14059 17.8848 4.22166 17.3578C4.33131 16.6452 5.26412 15.9075 5.97186 15.9075" stroke="#2362A8" stroke-linecap="round"/>
<path d="M6.57897 15.7726C7.12441 16.1219 9.14752 17.1005 8.66271 18.2086C8.53893 18.4915 8.3756 18.753 8.183 18.9806C8.14227 19.0288 8.06357 18.3715 8.06308 18.321C8.05876 17.8767 8.05723 17.4312 8.06308 16.9868C8.06899 16.5374 8.11603 16.17 8.05933 15.7163C8.03699 15.5377 7.12588 15.6376 6.96873 15.6376C6.90879 15.6376 6.04546 15.5799 6.29414 15.5177C6.6001 15.4412 6.31702 15.92 6.2754 15.9712C6.16509 16.107 5.97159 16.2847 5.79944 16.316C5.47491 16.375 5.39898 17.2367 5.90438 17.1068C6.17973 17.036 6.48091 16.9208 6.74762 16.8182C7.09898 16.683 7.24048 17.1704 7.351 17.4216C7.4667 17.6845 7.50244 17.9431 7.52715 18.2273C7.54422 18.4237 7.65832 18.5582 7.65832 18.7745C7.65832 19.1097 6.93914 19.1432 6.6989 19.0631C6.19281 18.8944 5.86923 18.3006 5.36845 18.1336C5.1542 18.0622 4.95783 17.7173 4.87749 17.5265C4.64715 16.9794 5.38066 17.2567 5.702 17.2567C6.0747 17.2567 6.56859 17.4179 6.72888 17.8113C6.82946 18.0582 6.91509 18.6873 6.4478 18.366C6.21515 18.2061 6.08636 17.8819 5.91937 17.6614C5.76246 17.4543 5.83692 17.8336 5.83692 17.9463C5.83692 18.2061 5.83692 18.4659 5.83692 18.7258C5.83692 19.2857 5.3647 18.7839 5.3647 18.4709" stroke="#2362A8" stroke-linecap="round"/>
</svg>
