<svg width="22" height="22" viewBox="0 0 22 22" fill="none" xmlns="http://www.w3.org/2000/svg">
<path d="M10.9999 12.3108C12.5794 12.3108 13.8599 11.0304 13.8599 9.45082C13.8599 7.87129 12.5794 6.59082 10.9999 6.59082C9.42036 6.59082 8.13989 7.87129 8.13989 9.45082C8.13989 11.0304 9.42036 12.3108 10.9999 12.3108Z" stroke="#2362A8" stroke-width="1.2"/>
<path d="M3.31823 7.78248C5.12406 -0.155852 16.8849 -0.146685 18.6816 7.79165C19.7357 12.4483 16.8391 16.39 14.2999 18.8283C12.4574 20.6066 9.5424 20.6066 7.69073 18.8283C5.16073 16.39 2.26406 12.4391 3.31823 7.78248Z" stroke="#2362A8" stroke-width="1.2"/>
<path d="M6.23463 5.88876C6.42562 6.48559 6.44602 7.29029 6.24858 7.8826C6.15375 8.16708 6.13198 8.49034 6.03246 8.7889C5.93755 9.07363 5.93802 8.95516 5.88257 8.70873C5.7874 8.28574 5.51393 7.93399 5.4852 7.48871C5.46032 7.10316 5.36488 6.414 5.51657 6.04561C5.57445 5.90506 5.60525 5.76481 5.656 5.62384C5.68776 5.53563 5.83029 5.36965 5.83029 5.28921C5.83029 5.07647 5.59428 5.65669 5.41897 5.77721C5.26175 5.8853 5.01274 6.27997 4.98325 6.45693C4.96107 6.59003 4.90068 6.66749 4.82639 6.78111C4.72934 6.92955 4.76819 7.05088 4.69393 7.1994C4.63799 7.31128 4.45544 7.84005 4.42902 7.74317C4.2684 7.15423 4.34879 6.0902 4.88565 5.67264C5.05176 5.54345 5.40358 5.03807 5.34577 5.24041C5.20503 5.73298 4.77905 6.15223 4.61725 6.65562C4.43506 7.22243 4.27213 7.79561 4.16759 8.37061C3.95343 9.54846 4.14829 10.8105 4.22684 11.9888C4.2508 12.3481 4.44319 12.7827 4.58936 13.1043C4.7107 13.3712 4.82737 13.6587 4.97977 13.9199C5.15272 14.2164 5.31115 14.5839 5.35971 14.9238C5.40517 15.242 5.66323 15.5779 5.82332 15.851C6.01886 16.1846 6.35794 16.4902 6.62504 16.7573C6.9033 17.0356 7.14476 17.3398 7.42327 17.6183C7.69648 17.8915 7.9888 18.1448 8.2982 18.4026C8.64266 18.6896 8.96743 18.9976 9.30906 19.288C9.40182 19.3668 9.55128 19.2771 9.65415 19.3228C9.82547 19.399 9.87153 19.4413 10.0759 19.4413C10.4892 19.4413 11.0037 19.5201 11.411 19.4344C11.7201 19.3693 12.2696 19.1837 12.509 18.9743C12.865 18.6627 13.0812 18.2324 13.4153 17.8797C13.9555 17.3094 14.4558 16.7264 15.0954 16.2763C15.46 16.0197 15.6507 15.7015 15.8483 15.3282C15.8696 15.288 15.8971 15.8075 15.8971 15.8859C15.8971 16.1786 15.6655 16.5657 15.5486 16.834C15.0902 17.8855 13.9514 18.1931 12.8854 18.2492C12.7961 18.2539 12.1238 18.4077 12.1465 18.4235C12.1968 18.4587 12.399 18.3516 12.4462 18.3398C12.7929 18.2532 13.1405 18.1902 13.485 18.0889C14.1532 17.8923 15.1168 17.5902 15.5451 16.9943C16.0389 16.3072 16.4516 15.3449 16.65 14.5264C16.7532 14.1009 16.9071 13.5254 17.1659 13.167C17.4456 12.7798 17.7053 12.4021 17.9189 11.9749C17.9876 11.8374 18.1559 11.4585 18.1559 11.4869C18.1559 12.1769 17.9758 12.9559 17.6086 13.5469C17.2047 14.1971 16.6354 14.7784 16.0993 15.3212C15.8487 15.5749 15.6148 15.8894 15.3324 16.109C15.0974 16.2918 14.8888 16.4842 14.6562 16.6806C14.4217 16.8787 14.1331 17.0295 13.9172 17.2453C13.5892 17.5734 13.2727 17.836 13.1504 18.312C13.1221 18.422 13.1364 18.5475 13.1364 18.6605C13.1364 18.8651 13.276 18.5972 13.356 18.535C13.4368 18.4722 13.6311 18.5027 13.6384 18.6257C13.6451 18.7409 13.3119 18.6884 13.2549 18.6884C12.6675 18.6884 12.153 18.5855 11.5818 18.4514C11.3576 18.3988 11.0457 18.3882 10.8393 18.2771C10.5707 18.1325 10.2143 18.0269 9.92953 17.932C9.44949 17.772 8.91944 17.3305 8.591 16.9525C7.41618 15.6004 6.17385 14.0081 5.57234 12.313C5.32575 11.6181 5.07417 10.9562 4.88914 10.2425C4.76433 9.76105 4.6033 9.19969 4.6033 8.69827C4.6033 8.6607 4.58379 8.37848 4.63816 8.47169C4.80448 8.75681 4.93191 9.06483 5.04251 9.3745C5.20125 9.81897 5.35623 10.1476 5.35623 10.6294C5.35623 11.4441 5.38495 12.2167 5.66994 12.9648C5.81965 13.3578 5.32972 12.6303 5.2656 12.543C5.08141 12.2926 4.90985 12.0437 4.84034 11.7378C4.82625 11.6759 4.76142 11.2689 4.80199 11.5461C4.91097 12.2908 5.3112 13.0391 5.66994 13.6968C5.8324 13.9947 5.94245 14.4451 6.14401 14.7042C6.46229 15.1134 6.76607 15.5401 7.07121 15.9626C7.50274 16.5601 8.04678 17.0869 8.55614 17.6218C9.08587 18.178 9.61066 18.8767 10.435 18.8767C10.7735 18.8767 11.0613 18.9226 11.3238 18.7163C11.5094 18.5705 11.5789 18.3637 11.7421 18.2004C11.9671 17.9754 12.2022 17.8097 12.3974 17.5451C12.6402 17.216 12.8871 16.9269 13.0249 16.5412C13.1875 16.0858 13.7971 15.7393 14.1473 15.4536C14.7474 14.9641 15.3998 14.5472 15.9912 14.0454C16.5017 13.6123 17.2898 12.9803 17.5424 12.3374C17.7937 11.6976 17.7794 11.1083 17.7794 10.4342C17.7794 9.75056 18.0304 9.13656 18.0304 8.46124C18.0304 8.18935 18.0304 7.91746 18.0304 7.64557C18.0304 7.28752 18.3339 8.20666 18.3685 8.30438C18.5437 8.79952 18.6946 9.3448 18.7171 9.87297C18.7347 10.2874 18.6596 10.604 18.4975 10.9745C18.3485 11.3151 18.0595 11.4197 17.8387 11.6681C17.2165 12.368 16.5185 12.9415 15.9564 13.7003C15.7307 14.0049 15.4788 14.2858 15.2209 14.5613C15.0478 14.7462 14.7937 15.0778 14.6701 15.3003C14.4912 15.6225 14.365 16.1167 14.0427 16.3181C14.0346 16.3232 13.9014 16.4803 13.9312 16.4506C14.2968 16.085 14.5979 15.663 14.8932 15.241C15.1759 14.8373 15.3184 14.3174 15.674 13.9617C15.7801 13.8557 15.8387 14.5382 15.8692 14.645C15.9149 14.8049 15.9035 14.9945 15.8971 15.1608C15.8799 15.6082 15.0792 15.8232 14.7677 15.9417C14.2564 16.1361 13.5912 16.1774 13.2305 16.6214C13.0467 16.8476 12.8389 17.0497 12.6624 17.2767C12.4328 17.5718 11.7213 17.4396 11.4075 17.4336C10.4275 17.4147 9.74123 16.3787 9.15569 15.7151C9.04844 15.5935 8.94144 15.4754 8.79317 15.4118C8.50722 15.2893 8.30754 14.9262 8.09254 14.7112C7.79158 14.4102 7.60687 14.0089 7.32916 13.6829C7.01659 13.316 6.7817 12.8819 6.49955 12.4908C5.77315 11.4837 5.10525 10.182 5.10525 8.90044C5.10525 8.54845 5.10857 8.22499 5.18194 7.8826C5.28441 7.40443 5.48751 6.9334 5.54794 6.44996C5.60637 5.98251 5.57886 4.8584 5.9976 4.53629C6.15764 4.41318 6.27726 4.25505 6.41938 4.10405C6.59878 3.91344 6.84807 3.83122 7.07121 3.70668C7.44188 3.49979 7.79568 3.42274 8.21105 3.34416C9.20005 3.15705 10.163 3.00256 11.1774 3.00256C11.6684 3.00256 12.1488 2.95294 12.6345 2.93981C13.237 2.92353 12.2618 2.64826 12.0663 2.59124C11.5905 2.45246 11.0267 2.37512 10.5291 2.37512C10.2359 2.37512 9.96562 2.49594 9.67158 2.50061C9.63211 2.50124 8.9076 2.51684 8.93958 2.56335C9.00445 2.65772 9.29726 2.62434 9.38575 2.6261C9.79989 2.6343 10.2076 2.67877 10.6197 2.71673C11.2318 2.7731 11.843 2.81473 12.4532 2.89101C12.9669 2.95522 13.4586 3.17529 13.9521 3.31627C14.4771 3.46628 14.9462 3.86836 15.4231 4.12845C15.6054 4.22792 15.6809 4.33428 15.7995 4.49446C15.9196 4.65652 16.1461 4.75144 16.2806 4.9232C16.877 5.68533 17.6503 6.72703 17.7167 7.72226C17.7495 8.21478 17.8407 8.71576 17.7655 9.21416C17.6733 9.82505 17.4025 10.2831 17.1903 10.849C16.8901 11.6497 16.6268 12.4626 16.3015 13.2611C16.0532 13.8706 15.646 14.2411 15.1442 14.624C14.2615 15.2977 13.2629 15.7678 12.3521 16.3983C11.7839 16.7917 10.9526 17.3602 10.2223 17.2314C9.4276 17.0911 8.86293 16.0659 8.4934 15.4397C8.34209 15.1833 8.13665 15.0533 8.28077 15.4536C8.34395 15.6292 8.533 15.9643 8.68163 16.0811C8.98364 16.3184 9.09396 16.5769 9.50078 16.7085C10.3668 16.9887 10.5196 16.3133 11.0031 15.8022C11.5563 15.2174 12.1607 14.8434 12.8576 14.4358C13.7263 13.9277 14.4126 13.1712 15.0466 12.4001C16.0224 11.2133 16.6503 9.74729 17.0579 8.27998C17.1051 8.10998 17.0893 7.93258 17.0893 7.75712C17.0893 7.6767 17.0893 7.67138 17.0893 7.77803C17.0893 8.13798 17.0968 8.49881 17.0858 8.85861C17.0495 10.0359 16.6361 11.0517 16.0366 12.0376C15.8064 12.416 15.5828 12.816 15.3638 13.2019C15.0948 13.6758 14.7215 14.0505 14.3425 14.4358C13.6065 15.1841 12.5897 15.3265 11.648 15.736C11.5824 15.7645 10.9675 15.9973 11.031 15.9138C11.2861 15.5782 11.8501 15.3481 12.2022 15.133C13.3982 14.4021 13.8892 13.3059 14.6004 12.177C14.9589 11.608 15.2009 10.9715 15.5207 10.3819C15.7751 9.91283 16.097 9.43935 16.2596 8.92833C16.4615 8.29406 16.7755 7.60228 16.7755 6.93099C16.7755 5.70402 15.6383 4.87055 14.6841 4.27137C13.6844 3.64366 12.2531 3.6111 11.0973 3.50102C10.4156 3.4361 9.84972 3.45898 9.17312 3.60211C8.41042 3.76345 7.52091 3.928 6.85858 4.35851C6.18731 4.79484 6.14259 5.54673 6.17189 6.27916C6.18323 6.56261 6.31502 5.94142 6.32526 5.88876C6.3817 5.59853 6.37272 5.33662 6.54835 5.08703C6.69103 4.88428 6.91298 4.81179 7.11653 4.68966C7.70392 4.33722 8.25309 4.29916 8.957 4.2644C10.5016 4.18812 11.9702 4.64502 13.5129 4.70012C13.9742 4.71659 14.9026 4.65874 15.2069 5.05915C15.3234 5.21234 15.5124 5.34854 15.6462 5.51578C15.8183 5.73097 15.9528 5.93715 16.0366 6.18853C16.2495 6.82732 16.2736 7.38668 16.2736 8.06386C16.2736 8.26947 16.3798 8.97304 16.0714 8.53095C15.5582 7.79532 15.194 6.88348 14.8026 6.07699C14.5351 5.52582 14.2042 5.01225 13.8893 4.48749C13.7328 4.22651 13.438 4.04758 13.2201 3.83914C12.7637 3.4026 11.9988 3.24047 11.3796 3.33022C10.9697 3.38962 10.5332 3.58994 10.1561 3.75548C9.90875 3.86407 9.29145 4.00645 9.90861 4.00645C10.7854 4.00645 11.6654 4.0692 12.5369 4.0692C13.2809 4.0692 13.6275 4.52545 14.1124 5.01035C14.4255 5.32341 14.5178 5.77528 14.8165 6.0979C15.1433 6.45082 14.9052 5.31722 15.2348 5.66567C15.5859 6.0368 15.7302 6.60648 15.925 7.06694C16.0728 7.41621 15.819 6.6805 15.688 6.59985C15.632 6.5654 15.6462 6.959 15.6462 6.96934C15.6462 7.27608 15.6462 7.58283 15.6462 7.88958C15.6462 8.18404 15.6901 8.52054 15.6392 8.8133C15.512 9.54474 14.8644 10.1147 14.6283 10.7967C14.4723 11.2473 14.1403 11.7004 14.1403 12.1945C14.1403 12.4734 13.6035 13.198 13.3246 13.3064C13.092 13.3969 13.103 12.4622 13.1504 12.3025C13.2484 11.9716 13.498 11.816 13.6418 11.5043C13.7559 11.2573 13.9194 11.0731 14.0148 10.8106C14.0895 10.6052 14.1967 10.1782 14.3285 10.0298C14.5476 9.78343 14.5046 9.31197 14.5935 9.01199C14.7096 8.62008 14.5798 8.25193 14.5203 7.86517C14.413 7.16796 14.0632 6.69005 13.5791 6.20596C13.3246 5.95147 13.0289 5.71351 12.7913 5.44955C12.6823 5.32843 12.3279 5.03609 12.4881 5.06612C12.753 5.11579 13.0777 5.37919 13.3142 5.50532C13.5473 5.62964 13.7948 5.72811 14.0148 5.87481C14.6722 6.31305 14.8402 7.2117 15.1163 7.91746C15.154 8.01374 15.5501 9.15082 15.2976 9.04684C14.8386 8.85783 14.576 8.20214 14.2972 7.83032C14.0785 7.53872 13.9704 7.20556 13.6732 6.97631C13.3819 6.75154 13.1333 6.46336 12.8854 6.20247C12.7438 6.05338 12.5402 5.67842 12.3173 5.64127C11.9666 5.58283 11.3368 5.33317 11.0171 5.58898C10.8473 5.72483 10.4405 5.7231 10.2154 5.82601C9.94028 5.95176 9.60125 5.99125 9.30906 6.10487C9.00747 6.22216 8.7075 6.29242 8.43763 6.48133C8.14032 6.68945 9.08558 6.07699 9.44849 6.07699C9.89909 6.07699 10.3448 6.01424 10.801 6.01424C11.2376 6.01424 11.8251 6.12444 12.2441 6.0003C12.3101 5.98073 12.6014 5.8988 12.516 5.81904C12.2347 5.55652 11.6282 5.5494 11.2681 5.46349C10.9489 5.38738 10.5201 5.29097 10.2293 5.13235C10.0303 5.0238 10.5635 4.7616 10.6232 4.728C10.9075 4.56808 10.3934 4.6802 10.3199 4.69663C9.73768 4.82687 9.10303 4.86152 8.50734 4.88137C8.34355 4.88683 7.52295 4.92266 7.4895 5.21252C7.46909 5.38941 7.31625 5.41611 7.23853 5.57155C7.1776 5.69341 6.91324 5.78602 7.12699 5.70053C8.30482 5.22939 12.1602 5.14281 10.8916 5.14281C10.7028 5.14281 10.4972 5.20714 10.3095 5.22646C9.70282 5.28891 9.08809 5.29037 8.47946 5.32406C7.75964 5.36392 6.91715 5.26197 6.21372 5.44955C6.00143 5.50616 6.09051 6.21818 6.20675 6.32796C6.53312 6.6362 7.81513 6.27321 8.17968 6.09093C8.25509 6.05322 8.33345 5.91277 8.39928 5.96544C8.51222 6.05579 8.15806 6.55944 8.12042 6.66608C8.07097 6.8062 8.00928 7.37784 8.06117 7.29351C8.14504 7.15721 8.25042 7.00323 8.36791 6.89265C8.45557 6.81015 8.07987 7.30944 8.01934 7.38066C7.41462 8.09208 7.42676 9.18383 7.42676 10.0891C7.42676 10.5261 7.32965 10.2099 7.23853 9.93919C7.06952 9.43712 7.01883 8.95392 6.92481 8.43684C6.86226 8.09277 6.71619 7.29647 7.02241 6.99025C7.07684 6.93583 7.15713 6.71468 7.13396 6.78808C6.99736 7.22065 6.75207 7.67385 6.54835 8.08129C6.37212 8.43376 6.25535 9.61466 6.23463 9.22113C6.21708 8.88756 6.33755 8.57542 6.45772 8.26952C6.5971 7.91473 6.62284 7.48716 6.81327 7.15757C6.96839 6.88909 7.20313 6.67707 7.41979 6.46042C7.47548 6.40473 7.91317 5.93258 7.82065 6.25127C7.46342 7.48175 5.6221 8.63141 6.47167 10.0159C6.70949 10.4034 6.98716 10.7774 7.25247 11.1453C7.59509 11.6203 7.91622 12.1687 8.30168 12.6023C8.35629 12.6637 8.69095 13.1355 8.4934 12.8533C8.28411 12.5543 7.95444 12.2697 7.67076 12.0376C7.02091 11.5059 6.27502 11.3244 5.49566 11.0825C5.27328 11.0135 5.02772 11.0219 4.79154 11.0337C4.69177 11.0387 4.59422 11.19 4.50919 11.1522C4.26763 11.0449 4.4906 10.5095 4.57193 10.3854C4.78524 10.0598 5.15046 9.5894 5.48171 9.93571C5.72087 10.1857 5.97256 10.4458 6.23463 10.6712C6.32238 10.7467 6.72966 11.2332 6.73658 10.8803C6.74297 10.5547 6.60129 10.3388 6.45772 10.0647C6.25799 9.68338 6.47412 10.0401 6.59018 10.1832C6.72109 10.3445 6.85344 10.4591 7.02241 10.5666C7.19417 10.6759 7.4387 10.5939 7.5871 10.72C8.11884 11.172 9.00579 11.7517 9.24632 12.4733C9.5552 13.4 10.7784 13.3822 11.5399 13.4668C11.8782 13.5044 12.2286 13.4807 12.5682 13.4807C12.8128 13.4807 13.0989 13.5308 13.3246 13.418C13.4909 13.3348 13.5402 13.3745 13.4153 13.3517C13.1667 13.3065 13.0952 13.0618 12.9726 12.8847C12.9405 12.8383 12.6397 12.4537 12.6345 12.4559C12.5695 12.4827 12.5121 12.6424 12.4149 12.6964C12.1083 12.8667 11.601 12.7905 11.2681 12.7905C10.9613 12.7905 10.6546 12.7905 10.3478 12.7905C9.89699 12.7905 9.44617 12.7905 8.99535 12.7905C8.7218 12.7905 8.4468 12.8274 8.21105 12.6964C7.96133 12.5577 7.52391 12.6425 7.36402 12.3827C7.27392 12.2363 7.14935 12.154 7.0503 12.0237C6.98634 11.9395 6.90488 11.8904 6.98058 12.062C7.12327 12.3854 7.40689 12.6725 7.64288 12.93C8.07482 13.4012 8.71325 13.6187 9.12083 14.0942C9.30199 14.3056 9.56789 14.4152 9.76918 14.6031C9.91565 14.7398 10.0289 14.8968 10.1875 15.0214C10.3967 15.1858 10.5478 15.4152 10.7487 15.5826C10.8558 15.6719 11.3081 15.3473 11.4075 15.2863C11.7679 15.0653 12.1177 14.8418 12.3521 14.4811C12.7767 13.828 11.7163 14.3108 11.3587 14.2929C10.6715 14.2585 10.1158 14.2694 9.51124 13.9199C9.27635 13.7841 9.10159 13.5939 8.91517 13.4075C8.56299 13.0553 9.62504 14.1071 9.99924 14.4358C10.1686 14.5846 10.3482 14.8611 10.5988 14.8611C10.8939 14.8611 11.3445 14.8798 11.5887 14.7007C11.6549 14.6522 11.7447 14.3274 11.6654 14.4358C11.5003 14.6618 11.2632 14.9636 11.0241 15.112C10.2068 15.6193 9.51803 15.1483 8.86986 14.5962C8.55409 14.3272 8.33177 13.9465 8.03677 13.6515C7.92238 13.5371 7.99987 13.6783 8.02979 13.7421C8.19181 14.0878 8.43421 14.3929 8.67466 14.6868C9.07723 15.1788 9.63226 15.544 10.1178 15.9486C10.206 16.0221 10.508 16.1786 10.3966 16.1508C10.0247 16.0578 9.6269 15.6458 9.31255 15.4258C8.90378 15.1396 8.55322 14.7899 8.15877 14.4776C7.9239 14.2917 7.56795 13.9291 7.22459 14.0593C7.02188 14.1362 6.93554 14.3351 6.77144 14.4288C6.63674 14.5058 6.91961 14.5595 6.93178 14.5613C7.36491 14.6255 7.77583 14.7239 8.19014 14.868C8.49271 14.9733 9.42922 15.0948 9.51124 15.4536C9.54982 15.6225 9.54008 15.8162 9.65415 15.9556C9.83373 16.1751 10.464 16.0594 10.7103 16.0532C10.9709 16.0467 11.0416 15.8731 11.2541 15.8022" stroke="#2362A8" stroke-linecap="round"/>
<path d="M11.7561 15.9277C11.5471 16.2113 10.6895 17.5237 10.6895 16.4296C10.6895 16.2061 10.8946 15.8954 11.1147 15.8161C11.3421 15.7343 11.6795 16.1276 11.3796 15.9277" stroke="#2362A8" stroke-linecap="round"/>
<path d="M5.79538 9.33966C5.68714 9.54259 5.73263 9.17732 5.73263 9.08868" stroke="#2362A8" stroke-linecap="round"/>
</svg>
