<svg width="24" height="24" viewBox="0 0 24 24" fill="none" xmlns="http://www.w3.org/2000/svg">
<path d="M2.58 19.0103L2.56 19.0303C2.29 18.4403 2.12 17.7703 2.05 17.0303C2.12 17.7603 2.31 18.4203 2.58 19.0103Z" fill="#00162E"/>
<path d="M9.00189 10.3811C10.3163 10.3811 11.3819 9.31553 11.3819 8.00109C11.3819 6.68666 10.3163 5.62109 9.00189 5.62109C7.68745 5.62109 6.62189 6.68666 6.62189 8.00109C6.62189 9.31553 7.68745 10.3811 9.00189 10.3811Z" fill="#00162E"/>
<path d="M16.1931 2H7.81313C4.17313 2 2.00313 4.17 2.00313 7.81V16.19C2.00313 17.28 2.19313 18.23 2.56313 19.03C3.42313 20.93 5.26313 22 7.81313 22H16.1931C19.8331 22 22.0031 19.83 22.0031 16.19V13.9V7.81C22.0031 4.17 19.8331 2 16.1931 2ZM20.3731 12.5C19.5931 11.83 18.3331 11.83 17.5531 12.5L13.3931 16.07C12.6131 16.74 11.3531 16.74 10.5731 16.07L10.2331 15.79C9.52313 15.17 8.39313 15.11 7.59313 15.65L3.85313 18.16C3.63313 17.6 3.50313 16.95 3.50313 16.19V7.81C3.50313 4.99 4.99313 3.5 7.81313 3.5H16.1931C19.0131 3.5 20.5031 4.99 20.5031 7.81V12.61L20.3731 12.5Z" fill="#00162E"/>
</svg>
