<svg width="20" height="20" viewBox="0 0 20 20" fill="none" xmlns="http://www.w3.org/2000/svg">
<path d="M10.0001 18.2013C14.6025 18.2013 18.3334 14.4971 18.3334 9.92778C18.3334 5.35846 14.6025 1.6543 10.0001 1.6543C5.39773 1.6543 1.66677 5.35846 1.66677 9.92778C1.66677 14.4971 5.39773 18.2013 10.0001 18.2013Z" stroke="#00162E" stroke-width="1.2" stroke-linecap="round" stroke-linejoin="round"/>
<path d="M6.66668 2.48242H7.50002C5.87502 7.31414 5.87502 12.543 7.50002 17.3747H6.66668" stroke="#00162E" stroke-width="1.2" stroke-linecap="round" stroke-linejoin="round"/>
<path d="M12.5001 2.48242C14.1251 7.31414 14.1251 12.543 12.5001 17.3747" stroke="#00162E" stroke-width="1.2" stroke-linecap="round" stroke-linejoin="round"/>
<path d="M2.50011 13.2375V12.4102C7.36677 14.0235 12.6334 14.0235 17.5001 12.4102V13.2375" stroke="#00162E" stroke-width="1.2" stroke-linecap="round" stroke-linejoin="round"/>
<path d="M2.50011 7.44633C7.36677 5.833 12.6334 5.833 17.5001 7.44633" stroke="#00162E" stroke-width="1.2" stroke-linecap="round" stroke-linejoin="round"/>
</svg>
