<svg width="18" height="18" viewBox="0 0 18 18" fill="none" xmlns="http://www.w3.org/2000/svg">
<path d="M8.58173 16.499C12.5315 16.499 15.7335 13.1412 15.7335 8.99902C15.7335 4.85689 12.5315 1.49902 8.58173 1.49902C4.63194 1.49902 1.42999 4.85689 1.42999 8.99902C1.42999 13.1412 4.63194 16.499 8.58173 16.499Z" stroke="black" stroke-linecap="round" stroke-linejoin="round"/>
<path d="M5.72078 2.25H6.43596C5.04137 6.63 5.04137 11.37 6.43596 15.75H5.72078" stroke="black" stroke-linecap="round" stroke-linejoin="round"/>
<path d="M10.7276 2.25C12.1222 6.63 12.1222 11.37 10.7276 15.75" stroke="black" stroke-linecap="round" stroke-linejoin="round"/>
<path d="M2.14551 12V11.25C6.32212 12.7125 10.842 12.7125 15.0186 11.25V12" stroke="black" stroke-linecap="round" stroke-linejoin="round"/>
<path d="M2.14551 6.74922C6.32212 5.28672 10.842 5.28672 15.0186 6.74922" stroke="black" stroke-linecap="round" stroke-linejoin="round"/>
</svg>
