<svg width="12" height="12" viewBox="0 0 12 12" fill="none" xmlns="http://www.w3.org/2000/svg">
<path d="M6.3559 9.54469C8.23975 9.54469 9.76692 8.01753 9.76692 6.13367C9.76692 4.24982 8.23975 2.72266 6.3559 2.72266C4.47205 2.72266 2.94489 4.24982 2.94489 6.13367C2.94489 8.01753 4.47205 9.54469 6.3559 9.54469Z" stroke="white" stroke-width="1.2" stroke-linecap="round" stroke-linejoin="round"/>
<path d="M6.35592 7.49834C7.10946 7.49834 7.72033 6.88748 7.72033 6.13394C7.72033 5.3804 7.10946 4.76953 6.35592 4.76953C5.60238 4.76953 4.99152 5.3804 4.99152 6.13394C4.99152 6.88748 5.60238 7.49834 6.35592 7.49834Z" stroke="white" stroke-width="1.2" stroke-linecap="round" stroke-linejoin="round"/>
<path d="M6.35579 2.49505V1.58545" stroke="white" stroke-width="1.2" stroke-linecap="round" stroke-linejoin="round"/>
<path d="M2.71718 6.13379H1.80757" stroke="white" stroke-width="1.2" stroke-linecap="round" stroke-linejoin="round"/>
<path d="M6.35579 9.77197V10.6816" stroke="white" stroke-width="1.2" stroke-linecap="round" stroke-linejoin="round"/>
<path d="M9.99399 6.13379H10.9036" stroke="white" stroke-width="1.2" stroke-linecap="round" stroke-linejoin="round"/>
</svg>
