<svg width="24" height="24" viewBox="0 0 24 24" fill="none" xmlns="http://www.w3.org/2000/svg">
<path d="M3.99085 14.6601L2.47086 13.14C1.85086 12.52 1.85086 11.5 2.47086 10.88L3.99085 9.36002C4.25085 9.10002 4.46085 8.59001 4.46085 8.23001V6.07999C4.46085 5.19999 5.18086 4.48001 6.06086 4.48001H8.21085C8.57085 4.48001 9.08085 4.27004 9.34085 4.01004L10.8608 2.49002C11.4808 1.87002 12.5009 1.87002 13.1209 2.49002L14.6409 4.01004C14.9009 4.27004 15.4108 4.48001 15.7708 4.48001H17.9209C18.8009 4.48001 19.5208 5.19999 19.5208 6.07999V8.23001C19.5208 8.59001 19.7308 9.10002 19.9908 9.36002L21.5109 10.88C22.1309 11.5 22.1309 12.52 21.5109 13.14L19.9908 14.6601C19.7308 14.9201 19.5208 15.4301 19.5208 15.7901V17.94C19.5208 18.82 18.8009 19.5401 17.9209 19.5401H15.7708C15.4108 19.5401 14.9009 19.75 14.6409 20.01L13.1209 21.5301C12.5009 22.1501 11.4808 22.1501 10.8608 21.5301L9.34085 20.01C9.08085 19.75 8.57085 19.5401 8.21085 19.5401H6.06086C5.18086 19.5401 4.46085 18.82 4.46085 17.94V15.7901C4.46085 15.4201 4.25085 14.9101 3.99085 14.6601Z" fill="#2362A8" stroke="#2362A8" stroke-width="1.5" stroke-linecap="round" stroke-linejoin="round"/>
<path d="M9 15L15 9" stroke="white" stroke-width="1.5" stroke-linecap="round" stroke-linejoin="round"/>
<path d="M14.4945 14.5H14.5035" stroke="white" stroke-width="2" stroke-linecap="round" stroke-linejoin="round"/>
<path d="M9.49451 9.5H9.50349" stroke="white" stroke-width="2" stroke-linecap="round" stroke-linejoin="round"/>
</svg>
