<svg width="24" height="24" viewBox="0 0 24 24" fill="none" xmlns="http://www.w3.org/2000/svg">
<path d="M21.5309 10.87L20.0109 9.35001C19.7509 9.09001 19.5409 8.58001 19.5409 8.22001V6.06C19.5409 5.18 18.8209 4.46 17.9409 4.46H15.7909C15.4309 4.46 14.9209 4.25 14.6609 3.99L13.1409 2.47C12.5209 1.85 11.5009 1.85 10.8809 2.47L9.34086 3.99C9.09086 4.25 8.58086 4.46 8.21086 4.46H6.06086C5.18086 4.46 4.46086 5.18 4.46086 6.06V8.21C4.46086 8.57 4.25086 9.08 3.99086 9.34L2.47086 10.86C1.85086 11.48 1.85086 12.5 2.47086 13.12L3.99086 14.64C4.25086 14.9 4.46086 15.41 4.46086 15.77V17.92C4.46086 18.8 5.18086 19.52 6.06086 19.52H8.21086C8.57086 19.52 9.08086 19.73 9.34086 19.99L10.8609 21.51C11.4809 22.13 12.5009 22.13 13.1209 21.51L14.6409 19.99C14.9009 19.73 15.4109 19.52 15.7709 19.52H17.9209C18.8009 19.52 19.5209 18.8 19.5209 17.92V15.77C19.5209 15.41 19.7309 14.9 19.9909 14.64L21.5109 13.12C22.1609 12.51 22.1609 11.49 21.5309 10.87ZM8.00086 9C8.00086 8.45 8.45086 8 9.00086 8C9.55086 8 10.0009 8.45 10.0009 9C10.0009 9.55 9.56086 10 9.00086 10C8.45086 10 8.00086 9.55 8.00086 9ZM9.53086 15.53C9.38086 15.68 9.19086 15.75 9.00086 15.75C8.81086 15.75 8.62086 15.68 8.47086 15.53C8.18086 15.24 8.18086 14.76 8.47086 14.47L14.4709 8.47001C14.7609 8.18001 15.2409 8.18001 15.5309 8.47001C15.8209 8.76001 15.8209 9.24 15.5309 9.53L9.53086 15.53ZM15.0009 16C14.4409 16 13.9909 15.55 13.9909 15C13.9909 14.45 14.4409 14 14.9909 14C15.5409 14 15.9909 14.45 15.9909 15C15.9909 15.55 15.5509 16 15.0009 16Z" fill="#2362A8"/>
</svg>
