<svg width="16" height="17" viewBox="0 0 16 17" fill="none" xmlns="http://www.w3.org/2000/svg">
<path d="M14.6493 13.1889C14.6493 13.4289 14.5959 13.6756 14.4826 13.9156C14.3693 14.1556 14.2226 14.3822 14.0293 14.5956C13.7026 14.9556 13.3426 15.2156 12.9359 15.3822C12.5359 15.5489 12.1026 15.6356 11.6359 15.6356C10.9559 15.6356 10.2293 15.4756 9.4626 15.1489C8.69594 14.8222 7.92927 14.3822 7.16927 13.8289C6.4026 13.2689 5.67594 12.6489 4.9826 11.9622C4.29594 11.2689 3.67594 10.5422 3.1226 9.78225C2.57594 9.02225 2.13594 8.26225 1.81594 7.50891C1.49594 6.74891 1.33594 6.02225 1.33594 5.32891C1.33594 4.87558 1.41594 4.44225 1.57594 4.04225C1.73594 3.63558 1.98927 3.26225 2.3426 2.92891C2.76927 2.50891 3.23594 2.30225 3.72927 2.30225C3.91594 2.30225 4.1026 2.34225 4.26927 2.42225C4.4426 2.50225 4.59594 2.62225 4.71594 2.79558L6.2626 4.97558C6.38261 5.14225 6.46927 5.29558 6.52927 5.44225C6.58927 5.58225 6.62261 5.72225 6.62261 5.84891C6.62261 6.00891 6.57594 6.16891 6.4826 6.32225C6.39594 6.47558 6.26927 6.63558 6.10927 6.79558L5.6026 7.32225C5.52927 7.39558 5.49594 7.48225 5.49594 7.58891C5.49594 7.64225 5.5026 7.68891 5.51594 7.74225C5.53594 7.79558 5.55594 7.83558 5.56927 7.87558C5.68927 8.09558 5.89594 8.38225 6.18927 8.72891C6.48927 9.07558 6.80927 9.42891 7.15594 9.78225C7.51594 10.1356 7.8626 10.4622 8.21594 10.7622C8.5626 11.0556 8.84927 11.2556 9.07594 11.3756C9.10927 11.3889 9.14927 11.4089 9.19594 11.4289C9.24927 11.4489 9.30261 11.4556 9.36261 11.4556C9.47594 11.4556 9.56261 11.4156 9.63594 11.3422L10.1426 10.8422C10.3093 10.6756 10.4693 10.5489 10.6226 10.4689C10.7759 10.3756 10.9293 10.3289 11.0959 10.3289C11.2226 10.3289 11.3559 10.3556 11.5026 10.4156C11.6493 10.4756 11.8026 10.5622 11.9693 10.6756L14.1759 12.2422C14.3493 12.3622 14.4693 12.5022 14.5426 12.6689C14.6093 12.8356 14.6493 13.0022 14.6493 13.1889Z" stroke="#2362A8" stroke-width="1.2" stroke-miterlimit="10"/>
</svg>
