<svg width="68" height="13" viewBox="0 0 68 13" fill="none" xmlns="http://www.w3.org/2000/svg">
<path d="M62.345 2.19735L63.2881 4.11487C63.4168 4.3818 63.7597 4.63783 64.0491 4.68686L65.7586 4.97558C66.8518 5.16079 67.109 5.96702 66.3213 6.76236L64.9923 8.11334C64.7672 8.34213 64.6439 8.78338 64.7136 9.09934L65.0941 10.7717C65.3942 12.0955 64.7029 12.6075 63.5507 11.9157L61.9484 10.9515C61.659 10.7772 61.1821 10.7772 60.8874 10.9515L59.285 11.9157C58.1382 12.6075 57.4416 12.09 57.7417 10.7717L58.1222 9.09934C58.1918 8.78338 58.0686 8.34213 57.8435 8.11334L56.5145 6.76236C55.7321 5.96702 55.984 5.16079 57.0772 4.97558L58.7867 4.68686C59.0707 4.63783 59.4137 4.3818 59.5423 4.11487L60.4854 2.19735C60.9999 1.15687 61.8359 1.15687 62.345 2.19735Z" stroke="#FFC412" stroke-width="1.5" stroke-linecap="round" stroke-linejoin="round"/>
<path d="M47.6582 2.07284L48.6014 3.99036C48.73 4.25729 49.073 4.51332 49.3624 4.56235L51.0718 4.85106C52.1651 5.03628 52.4223 5.84251 51.6345 6.63785L50.3055 7.98883C50.0805 8.21762 49.9572 8.65887 50.0269 8.97483L50.4073 10.6472C50.7074 11.971 50.0161 12.483 48.864 11.7912L47.2617 10.827C46.9723 10.6527 46.4954 10.6527 46.2006 10.827L44.5983 11.7912C43.4515 12.483 42.7549 11.9655 43.055 10.6472L43.4354 8.97483C43.5051 8.65887 43.3818 8.21762 43.1568 7.98883L41.8278 6.63785C41.0454 5.84251 41.2972 5.03628 42.3905 4.85106L44.0999 4.56235C44.384 4.51332 44.7269 4.25729 44.8555 3.99036L45.7987 2.07284C46.3132 1.03236 47.1491 1.03236 47.6582 2.07284Z" fill="#FFC412"/>
<path d="M33.9718 2.07284L34.915 3.99036C35.0436 4.25729 35.3866 4.51332 35.6759 4.56235L37.3854 4.85106C38.4786 5.03628 38.7359 5.84251 37.9481 6.63785L36.6191 7.98883C36.394 8.21762 36.2708 8.65887 36.3404 8.97483L36.7209 10.6472C37.021 11.971 36.3297 12.483 35.1776 11.7912L33.5753 10.827C33.2859 10.6527 32.8089 10.6527 32.5142 10.827L30.9119 11.7912C29.7651 12.483 29.0684 11.9655 29.3685 10.6472L29.749 8.97483C29.8187 8.65887 29.6954 8.21762 29.4704 7.98883L28.1414 6.63785C27.359 5.84251 27.6108 5.03628 28.704 4.85106L30.4135 4.56235C30.6975 4.51332 31.0405 4.25729 31.1691 3.99036L32.1123 2.07284C32.6267 1.03236 33.4627 1.03236 33.9718 2.07284Z" fill="#FFC412"/>
<path d="M20.2854 2.07284L21.2286 3.99036C21.3572 4.25729 21.7002 4.51332 21.9895 4.56235L23.699 4.85106C24.7922 5.03628 25.0495 5.84251 24.2617 6.63785L22.9327 7.98883C22.7076 8.21762 22.5844 8.65887 22.654 8.97483L23.0345 10.6472C23.3346 11.971 22.6433 12.483 21.4912 11.7912L19.8888 10.827C19.5995 10.6527 19.1225 10.6527 18.8278 10.827L17.2255 11.7912C16.0787 12.483 15.382 11.9655 15.6821 10.6472L16.0626 8.97483C16.1323 8.65887 16.009 8.21762 15.7839 7.98883L14.4549 6.63785C13.6725 5.84251 13.9244 5.03628 15.0176 4.85106L16.7271 4.56235C17.0111 4.51332 17.3541 4.25729 17.4827 3.99036L18.4259 2.07284C18.9403 1.03236 19.7763 1.03236 20.2854 2.07284Z" fill="#FFC412"/>
<path d="M6.2854 1.77987L7.22857 3.69739C7.35718 3.96432 7.70015 4.22035 7.98953 4.26938L9.69901 4.55809C10.7922 4.74331 11.0495 5.54954 10.2617 6.34488L8.93269 7.69586C8.70762 7.92465 8.58437 8.3659 8.65403 8.68186L9.03451 10.3542C9.33461 11.678 8.64331 12.1901 7.49115 11.4982L5.88885 10.534C5.59947 10.3597 5.12253 10.3597 4.82779 10.534L3.22548 11.4982C2.07868 12.1901 1.38202 11.6725 1.68212 10.3542L2.0626 8.68186C2.13227 8.3659 2.00901 7.92465 1.78394 7.69586L0.454933 6.34488C-0.327464 5.54954 -0.0755964 4.74331 1.01762 4.55809L2.7271 4.26938C3.01112 4.22035 3.35409 3.96432 3.48271 3.69739L4.42587 1.77987C4.94032 0.739393 5.77631 0.739393 6.2854 1.77987Z" fill="#FFC412"/>
</svg>
